<?xml version="1.0" encoding="utf-8"?>
<!-- Generator: Adobe Illustrator 19.2.0, SVG Export Plug-In . SVG Version: 6.00 Build 0)  -->
<svg version="1.1" id="Layer_1" xmlns="http://www.w3.org/2000/svg" xmlns:xlink="http://www.w3.org/1999/xlink" x="0px" y="0px"
	 viewBox="0 0 28.2 25.2" style="enable-background:new 0 0 28.2 25.2;" xml:space="preserve">
<style type="text/css">
	.st0{fill:#5A5A5A;}
</style>
<path class="st0" d="M24.6,16.7c-0.2-3.2-3-5.8-6.4-5.5c-1.1-1.2-2.7-2-4.5-2c-3.2,0-5.8,2.4-5.9,5.5c-2,0.4-3.6,2.1-3.6,4.2
	c0,2.4,1.9,4.3,4.4,4.3h1.3c0.8,1.2,2.1,2,3.7,2h10.3c2.4,0,4.4-1.9,4.4-4.3C28.2,18.8,26.7,17.1,24.6,16.7z M9.2,21.2H8.6
	c-1.3,0-2.4-1-2.4-2.3c0-2.1,2.1-2.6,3.5-2.5c-0.1-1.4,0.1-5.2,4-5.2c1,0,1.7,0.2,2.3,0.6c-1.8,0.9-3.1,2.7-3.2,4.9
	C10.8,17.1,9.1,18.9,9.2,21.2z M23.9,23.2H13.6c-1.3,0-2.4-1-2.4-2.3c0-2.1,2.1-2.6,3.5-2.5c-0.1-1.4,0.1-5.2,4-5.2
	c3.8,0,4.2,3.8,4,5.2c1.5-0.1,3.5,0.4,3.5,2.5C26.2,22.2,25.2,23.2,23.9,23.2z"/>
<path class="st0" d="M10.1,3.2V0H8.5v3.2c0.3,0,0.5-0.1,0.8-0.1S9.8,3.1,10.1,3.2z"/>
<path class="st0" d="M14.2,5.5l2.2-2.2l-1.1-1.1l-2.2,2.2C13.5,4.7,13.9,5.1,14.2,5.5z"/>
<path class="st0" d="M7.8,13.7c0-0.1,0.1-0.2,0.1-0.2c0.4-0.6,0.4-0.6,0.2,0.1c0,0,0,0,0,0c0.2-0.4,0.4-1.1,0.5-1.2c0,0,0,0,0,0
	c-1.4-0.3-2.4-1.5-2.4-3c0-1.7,1.4-3.1,3.1-3.1c1.7,0,3.1,1.4,3.1,3.1c0,0.2,0,0.5-0.1,0.7c0.3,0,0.5,0,0.8,0
	c0.3-0.2,0.6-0.4,0.8-0.7c0,0,0,0,0,0c0-2.6-2.1-4.7-4.7-4.7S4.7,6.7,4.7,9.3C4.7,11.4,6,13.1,7.8,13.7z"/>
<path class="st0" d="M4.4,13.1l-2.2,2.2l1.1,1.1l2.2-2.2C5.1,13.9,4.7,13.5,4.4,13.1z"/>
<path class="st0" d="M5.5,4.4L3.3,2.2L2.2,3.3l2.2,2.2C4.7,5.1,5.1,4.7,5.5,4.4z"/>
<path class="st0" d="M3.1,9.3c0-0.3,0-0.5,0.1-0.8H0v1.6h3.2C3.1,9.8,3.1,9.6,3.1,9.3z"/>
</svg>
