<?xml version="1.0" encoding="utf-8"?>
<!-- Generator: Adobe Illustrator 19.2.0, SVG Export Plug-In . SVG Version: 6.00 Build 0)  -->
<svg version="1.1" id="Layer_1" xmlns="http://www.w3.org/2000/svg" xmlns:xlink="http://www.w3.org/1999/xlink" x="0px" y="0px"
	 viewBox="0 0 25.6 21.6" style="enable-background:new 0 0 25.6 21.6;" xml:space="preserve">
<style type="text/css">
	.st0{fill:#5A5A5A;}
</style>
<path class="st0" d="M22,13.1c-0.2-3.2-3-5.8-6.4-5.5c-1.1-1.2-2.7-2-4.5-2c-3.2,0-5.8,2.4-5.9,5.5c-2,0.4-3.6,2.1-3.6,4.2
	c0,2.4,1.9,4.3,4.4,4.3h1.3c0.8,1.2,2.1,2,3.7,2h10.3c2.4,0,4.4-1.9,4.4-4.3C25.6,15.2,24.1,13.5,22,13.1z M6.7,17.6H6
	c-1.3,0-2.4-1-2.4-2.3c0-2.1,2.1-2.6,3.5-2.5c-0.1-1.4,0.1-5.2,4-5.2c1,0,1.7,0.2,2.3,0.6c-1.8,0.9-3.1,2.7-3.2,4.9
	C8.2,13.5,6.5,15.3,6.7,17.6z M21.3,19.6H11c-1.3,0-2.4-1-2.4-2.3c0-2.1,2.1-2.6,3.5-2.5c-0.1-1.4,0.1-5.2,4-5.2
	c3.8,0,4.2,3.8,4,5.2c1.5-0.1,3.5,0.4,3.5,2.5C23.6,18.6,22.6,19.6,21.3,19.6z"/>
<path class="st0" d="M10.2,6.2C9.4,6,8.8,5.4,8.5,4.5C8.3,5.4,7.6,6,6.8,6.2c0.8,0.2,1.5,0.9,1.7,1.7C8.8,7.1,9.4,6.5,10.2,6.2z"/>
<path class="st0" d="M10.8,4.5c0.2-0.8,0.9-1.5,1.7-1.7C11.7,2.6,11,2,10.8,1.1C10.5,2,9.9,2.6,9.1,2.8C9.9,3.1,10.5,3.7,10.8,4.5z"
	/>
<path class="st0" d="M4.6,12c-2-0.9-3.4-2.8-3.4-5.2c0-2.9,2.2-5.3,4.9-5.6c-1.5,1.2-2.7,3-2.7,5.6c0,1.9,0.6,3.5,1.6,4.6
	c0.2-0.3,0.5-0.6,0.8-0.8C5,9.7,4.5,8.4,4.5,6.8c0-4.3,3.6-5.9,5.3-6.1c-1-0.4-2-0.7-3-0.7C3.1,0,0,3.1,0,6.8C0,9.6,1.7,12,4.2,13
	C4.3,12.7,4.4,12.3,4.6,12z"/>
</svg>
