<?xml version="1.0" encoding="utf-8"?>
<!-- Generator: Adobe Illustrator 19.2.0, SVG Export Plug-In . SVG Version: 6.00 Build 0)  -->
<svg version="1.1" id="Layer_1" xmlns="http://www.w3.org/2000/svg" xmlns:xlink="http://www.w3.org/1999/xlink" x="0px" y="0px"
	 viewBox="0 0 125 80" style="enable-background:new 0 0 125 80;" xml:space="preserve">
<style type="text/css">
	.st0{fill:#595959;}
	.st1{fill:#FFFFFF;}
</style>
<rect x="29.3" y="30.3" class="st0" width="94.3" height="19.5"/>
<path class="st0" d="M16.7,23.7C7.5,23.7,0,31.2,0,40.4C0,47.8,4.7,54,11.4,56.3c0.8,0.1,1.1-0.4,1.1-0.8v-3.1
	c-4.6,1-5.6-1.9-5.6-1.9c-0.7-1.9-1.8-2.5-1.8-2.5c-1.5-1,0.1-1,0.1-1c1.7,0.1,2.5,1.7,2.5,1.7c1.5,2.5,3.9,1.8,4.9,1.4
	c0.1-1.1,0.6-1.8,1.1-2.2C9.9,47.4,6,46,6,39.6c0-1.8,0.7-3.3,1.7-4.4c0-0.4-0.7-2.2,0.3-4.4c0,0,1.4-0.4,4.6,1.7
	c1.4-0.4,2.8-0.6,4.2-0.6c1.4,0,2.8,0.1,4.2,0.6c3.2-2.1,4.6-1.7,4.6-1.7c1,2.4,0.3,4,0.1,4.4c1.1,1.1,1.7,2.6,1.7,4.4
	c0,6.4-3.9,7.8-7.6,8.2c0.6,0.6,1.1,1.5,1.1,3.1v4.6c0,0.4,0.3,1,1.1,0.8c6.8-2.2,11.5-8.5,11.5-15.9C33.4,31.2,25.9,23.7,16.7,23.7
	z"/>
<path class="st1" d="M43.7,34.9h1.5l-3.6,10.4H40L43.7,34.9z"/>
<path class="st1" d="M58.4,40v4.3h-2.2v-3.9c0-1.3-0.6-1.8-1.4-1.8c-1,0-1.7,0.6-1.7,1.9v3.8h-2.2v-3.9c0-1.3-0.6-1.8-1.4-1.8
	c-1,0-1.7,0.6-1.7,1.9v3.8h-2.2v-7.5h2.1v0.8c0.6-0.7,1.4-1,2.4-1s1.9,0.4,2.5,1.3c0.6-0.7,1.5-1.3,2.6-1.3
	C57,36.7,58.4,37.6,58.4,40z"/>
<path class="st1" d="M66.9,40v4.3h-2.1v-1c-0.4,0.7-1.1,1-2.2,1c-1.8,0-2.8-1-2.8-2.2c0-1.3,1-2.2,3.2-2.2h1.7c0-1-0.6-1.5-1.7-1.5
	c-0.8,0-1.7,0.3-2.1,0.7l-0.8-1.5c0.8-0.6,2.1-1,3.2-1C65.6,36.7,66.9,37.6,66.9,40z M64.8,41.8v-0.7h-1.5c-1,0-1.4,0.4-1.4,0.8
	c0,0.6,0.4,1,1.3,1C63.8,42.9,64.5,42.5,64.8,41.8z"/>
<path class="st1" d="M68.5,34.4c0-0.7,0.6-1.3,1.4-1.3s1.4,0.6,1.4,1.1c0,0.7-0.6,1.3-1.4,1.3C69.1,35.7,68.5,35.1,68.5,34.4z
	 M68.8,36.8h2.2v7.5h-2.2V36.8z"/>
<path class="st1" d="M72.3,43.5l0.7-1.5c0.7,0.4,1.7,0.7,2.6,0.7s1.4-0.3,1.4-0.7c0-1.3-4.4,0-4.4-2.9c0-1.4,1.3-2.4,3.5-2.4
	c1,0,2.2,0.3,2.9,0.7l-0.7,1.5c-0.7-0.4-1.5-0.6-2.1-0.6c-1,0-1.4,0.3-1.4,0.7c0,1.3,4.4,0,4.4,2.9c0,1.4-1.3,2.4-3.5,2.4
	C74.2,44.3,73,44,72.3,43.5z"/>
<path class="st1" d="M79.9,40.4c0-2.2,1.7-3.9,4.2-3.9c2.5,0,4,1.5,4,3.9s-1.7,3.9-4,3.9S79.9,42.8,79.9,40.4z M85.9,40.4
	c0-1.3-0.8-2.1-1.9-2.1S82,39.2,82,40.4s0.8,2.1,1.9,2.1S85.9,41.8,85.9,40.4z"/>
<path class="st1" d="M97.2,40v4.3H95v-3.9c0-1.3-0.6-1.8-1.5-1.8s-1.8,0.7-1.8,1.9v3.8h-2.2v-7.5h2.1v0.8c0.6-0.7,1.4-1,2.5-1
	C95.8,36.7,97.2,37.6,97.2,40L97.2,40z"/>
<path class="st1" d="M111.8,40v4.3h-2.2v-3.9c0-1.3-0.6-1.8-1.4-1.8c-1,0-1.7,0.6-1.7,1.9v3.8h-2.2v-3.9c0-1.3-0.6-1.8-1.4-1.8
	c-1,0-1.7,0.6-1.7,1.9v3.8H99v-7.5h2.1v0.8c0.6-0.7,1.4-1,2.4-1s1.9,0.4,2.5,1.3c0.6-0.7,1.5-1.3,2.6-1.3
	C110.5,36.7,111.8,37.6,111.8,40L111.8,40z"/>
</svg>
