<?xml version="1.0" encoding="utf-8"?>
<!-- Generator: Adobe Illustrator 19.2.0, SVG Export Plug-In . SVG Version: 6.00 Build 0)  -->
<svg version="1.1" id="Layer_1" xmlns="http://www.w3.org/2000/svg" xmlns:xlink="http://www.w3.org/1999/xlink" x="0px" y="0px"
	 viewBox="0 0 110.8 39.6" style="enable-background:new 0 0 110.8 39.6;" xml:space="preserve">
<style type="text/css">
	.st0{fill:#666666;}
	.st1{fill:#DADADA;}
	.st2{fill:#59595A;}
</style>
<g id="CLOUD">
	<g>
		<g>
			<path class="st0" d="M94.3,8.9c-3.7,0-6.8,2.6-7.5,6.2c-0.1,0.8,0.3,1.5,1.1,1.7c0.8,0.2,1.5-0.3,1.7-1.1
				c0.4-2.2,2.4-3.9,4.8-3.9c2.7,0,4.9,2.2,4.9,4.9c0,1.9-1.1,3.6-2.8,4.4c-0.7,0.3-1,1.2-0.7,1.9c0.2,0.5,0.7,0.8,1.3,0.8
				c0.2,0,0.4,0,0.6-0.1c2.7-1.2,4.4-3.9,4.4-6.9C101.9,12.3,98.5,8.9,94.3,8.9z"/>
		</g>
	</g>
	<g>
		<g>
			<path class="st0" d="M94.3,0c-0.8,0-1.4,0.6-1.4,1.4v5.2c0,0.8,0.6,1.4,1.4,1.4s1.4-0.6,1.4-1.4V1.4C95.7,0.6,95,0,94.3,0z"/>
		</g>
	</g>
	<g>
		<g>
			<path class="st0" d="M109.4,15.1h-5.2c-0.8,0-1.4,0.6-1.4,1.4s0.6,1.4,1.4,1.4h5.2c0.8,0,1.4-0.6,1.4-1.4
				C110.8,15.8,110.1,15.1,109.4,15.1z"/>
		</g>
	</g>
	<g>
		<g>
			<path class="st0" d="M105.8,4.9c-0.5-0.5-1.4-0.5-2,0l-3.5,3.5c-0.5,0.5-0.5,1.4,0,2c0.3,0.3,0.6,0.4,1,0.4s0.7-0.1,1-0.4
				l3.5-3.5C106.4,6.4,106.4,5.5,105.8,4.9z"/>
		</g>
	</g>
	<g>
		<g>
			<path class="st0" d="M88.1,8.4l-3.5-3.5c-0.5-0.5-1.4-0.5-2,0c-0.5,0.5-0.5,1.4,0,2l3.5,3.5c0.3,0.3,0.6,0.4,1,0.4s0.7-0.1,1-0.4
				C88.7,9.9,88.7,9,88.1,8.4z"/>
		</g>
	</g>
	<g>
		<g>
			<path class="st0" d="M105.8,26.1l-3.5-3.5c-0.5-0.5-1.4-0.5-2,0c-0.5,0.5-0.5,1.4,0,2l3.5,3.5c0.3,0.3,0.6,0.4,1,0.4
				s0.7-0.1,1-0.4C106.4,27.6,106.4,26.7,105.8,26.1z"/>
		</g>
	</g>
	<g>
		<g>
			<path class="st1" d="M92.1,19.5c-0.5-3.4-3.4-6-6.9-6c-0.6,0-1.3,0.1-1.9,0.3c-1.8-1.9-4.3-3.1-7-3.1c-5.2,0-9.5,4.2-9.5,9.5l0,0
				c-2.5,1.6-4,4.4-4,7.4c0,0.6,0.1,1.1,0.2,1.7c0.7,0,1.4,0,2.1,0.1c0.3-0.1,0.6-0.1,0.8-0.1c-0.2-0.5-0.2-1.1-0.2-1.7
				c0-2.3,1.3-4.4,3.3-5.4c0.6-0.3,0.9-0.9,0.8-1.5c0-0.1,0-0.3,0-0.5c0-3.7,3-6.7,6.7-6.7c2.1,0,4.1,1,5.4,2.7
				c0.4,0.5,1.1,0.7,1.7,0.5c0.5-0.3,1.1-0.4,1.7-0.4c2.3,0,4.2,1.8,4.2,4.2c0,0.6,0.4,1.1,1,1.3c2.5,0.8,4.3,3.1,4.3,5.8
				c0,3.3-2.7,6-6,6c-0.8,0-1.4,0.6-1.4,1.4s0.6,1.4,1.4,1.4c4.9,0,8.9-4,8.9-8.9C97.4,24.1,95.3,20.9,92.1,19.5z"/>
		</g>
	</g>
</g>
<g>
	<path class="st2" d="M0.3,32.2c0-2.6,2-4.4,4.7-4.4c1.6,0,2.9,0.6,3.8,1.7L7,31c-0.5-0.6-1.1-1-1.8-1c-1.2,0-2,0.8-2,2.1
		s0.8,2.1,2,2.1c0.8,0,1.3-0.4,1.8-1l1.8,1.6C8,35.9,6.7,36.5,5,36.5C2.3,36.5,0.3,34.7,0.3,32.2z"/>
	<path class="st2" d="M15.2,34.9H12l-0.6,1.5H8.6l3.7-8.4H15l3.7,8.4h-2.9L15.2,34.9z M14.4,32.8l-0.8-2.1l-0.8,2.1H14.4z"/>
	<path class="st2" d="M27.4,28v8.4h-2.3l-3.2-3.8v3.8h-2.8V28h2.3l3.2,3.8V28H27.4z"/>
	<path class="st2" d="M46.1,28l-2.7,8.4h-3L39,31.9l-1.4,4.5h-3L31.8,28h2.9l1.5,4.8l1.5-4.8h2.6l1.5,4.8l1.5-4.8H46.1z"/>
	<path class="st2" d="M53.7,34.2v2.1h-7V28h6.8v2.1h-4v1H53v2h-3.5v1.1C49.5,34.2,53.7,34.2,53.7,34.2z"/>
	<path class="st2" d="M63.9,31.9h2.5v3.6c-1,0.7-2.4,1.1-3.7,1.1c-2.7,0-4.7-1.8-4.7-4.4s2-4.4,4.7-4.4c1.7,0,3,0.6,3.8,1.6L64.8,31
		c-0.5-0.6-1.1-0.9-1.9-0.9c-1.2,0-2,0.8-2,2.1c0,1.3,0.8,2.1,2,2.1c0.3,0,0.7-0.1,1-0.2V31.9z"/>
	<path class="st2" d="M67.3,32.2c0-2.5,2-4.4,4.7-4.4s4.7,1.8,4.7,4.4s-2,4.4-4.7,4.4S67.3,34.7,67.3,32.2z M73.9,32.2
		c0-1.3-0.8-2.1-1.9-2.1s-1.9,0.8-1.9,2.1c0,1.3,0.8,2.1,1.9,2.1S73.9,33.5,73.9,32.2z"/>
	<path class="st2" d="M77.8,28h2.8v6.2h3.8v2.2h-6.6C77.8,36.4,77.8,28,77.8,28z"/>
	<path class="st2" d="M88,30.1v1.4h3.5v2.1H88v2.7h-2.8V28H92v2.1H88z"/>
</g>
</svg>
